<?xml version="1.0" encoding="UTF-8"?>
<svg id="Calque_1" data-name="Calque 1" xmlns="http://www.w3.org/2000/svg" viewBox="0 0 3000 3000">
  <defs>
    <style>
      .cls-1 {
        fill: #e20000;
      }
    </style>
  </defs>
  <g>
    <path class="cls-1" d="M422.14229,1532.64488c1.69445,2.66284,3.83221,4.96316,6.41624,6.89995,2.58108,1.93679,5.2252,3.53174,7.92844,4.78189,2.70323,1.25212,5.28431,2.16042,7.74717,2.72392,2.46286.56547,4.41739.84722,5.87146.84722,2.25795,0,4.92178-.24235,7.99149-.72605,3.06577-.48469,5.95027-1.35063,8.6535-2.60275,2.70323-1.25015,5.00453-2.94558,6.89995-5.08433,1.89542-2.13776,2.8451-4.86169,2.8451-8.17177,0-3.22635-.74871-5.84978-2.23825-7.86834-1.49348-2.01659-3.51105-3.69232-6.05272-5.02325-2.54167-1.33191-5.44982-2.4402-8.71655-3.32979-3.27068-.88663-6.71868-1.85503-10.35189-2.90519-8.47224-2.25795-15.69531-4.98187-21.66726-8.17078-5.97391-3.18694-10.87599-6.83985-14.7082-10.95579-3.83418-4.11593-6.63888-8.63479-8.41313-13.55755-1.77621-4.92178-2.66383-10.28983-2.66383-16.10021,0-6.53742,1.29054-12.50837,3.87359-17.91681,2.58206-5.40548,6.21429-10.04748,10.89569-13.92107,4.67943-3.87359,10.30855-6.87926,16.88635-9.01801,6.57584-2.13776,13.86196-3.20861,21.84951-3.20861,5.65079,0,10.69472.50538,15.13181,1.51318,4.43709,1.01076,8.55499,2.52394,12.34976,4.53954,3.79083,2.01856,7.361,4.56023,10.71048,7.62698,3.34949,3.06774,6.76203,6.6576,10.22973,10.77353,1.2137,1.45309,1.81661,2.86578,1.81661,4.2371,0,1.4521-.80782,2.82539-2.41951,4.11593-1.20976.9684-2.64413,2.17914-4.29917,3.63124-1.65504,1.45309-3.29038,2.86578-4.90208,4.2371-1.61564,1.37329-3.14852,2.54167-4.59865,3.51007-1.45407.96938-2.66383,1.45309-3.63321,1.45309-1.7772,0-3.51105-1.04819-5.2055-3.14753-1.7772-2.09737-3.55046-3.93368-5.32766-5.50794-1.77326-1.57327-3.62927-2.86381-5.56803-3.87359-1.93482-1.0078-4.03515-1.77424-6.2931-2.30031-2.26189-.5241-4.72081-.78614-7.38464-.78614-2.17914,0-4.46073.32313-6.84084.9684-2.38011.64625-4.55925,1.61465-6.53742,2.90519-1.97817,1.29152-3.62927,2.84411-4.96118,4.66072-1.33191,1.81562-1.99787,3.85487-1.99787,6.11282,0,2.58403.82358,4.78189,2.47862,6.59751,1.6511,1.81562,3.74355,3.38988,6.28128,4.72081,2.53773,1.33191,5.30007,2.44217,8.27915,3.3288,2.98302.88958,5.76112,1.69543,8.3422,2.42148,7.41222,2.09934,14.22154,4.52083,20.424,7.26347,6.20641,2.74461,11.54589,6.07341,16.0145,9.9864,4.47255,3.91595,7.95602,8.51558,10.45435,13.80088,2.49833,5.28628,3.74749,11.48087,3.74749,18.58178,0,7.50483-1.48954,14.22351-4.46467,20.15506-2.97513,5.93254-7.09698,10.95579-12.36553,15.07172s-11.50648,7.26347-18.71773,9.4426c-7.21125,2.17815-15.053,3.26772-23.52524,3.26772-5.08334,0-10.24944-.54478-15.49434-1.63435-5.24885-1.08858-10.2721-2.78402-15.0727-5.08334-4.80258-2.30031-9.24164-5.24589-13.31619-8.83773-4.07653-3.58986-7.48611-7.84766-10.22875-12.77141-1.21074-2.0156-1.81661-3.83122-1.81661-5.44686,0-1.04819.26106-1.95551.78713-2.72392.5241-.76644,1.22946-1.51318,2.11904-2.23923l13.55755-10.411c1.21074-.72605,2.30031-1.08957,3.26871-1.08957,1.12897,0,2.13678.38421,3.02636,1.15065.88663.76743,1.85503,1.7969,2.90519,3.08646Z"/>
    <path class="cls-1" d="M593.91691,1575.98235c-6.37585-.0798-12.3675-1.05016-17.97691-2.90716-5.60941-1.857-10.49178-4.54348-14.64712-8.05749-4.15731-3.51499-7.44375-7.83682-9.86523-12.96646s-3.63124-10.96662-3.63124-17.51093v-81.79157h-13.92205c-2.3407,0-4.09623-.52213-5.26658-1.56638-1.17035-1.04327-1.75553-2.7722-1.75553-5.1858v-17.36218c0-2.32987.58518-3.97998,1.75553-4.94444s2.92588-1.44718,5.26658-1.44718h13.92205c0-4.27651.01773-8.5343.05911-12.77042.03941-4.2371.06108-8.49293.06108-12.77141,0-1.61367.50242-2.8845,1.51318-3.81349,1.00879-.92702,2.56137-1.75553,4.65973-2.48158,1.37132-.48469,3.02636-1.06888,4.96513-1.75553,1.93679-.68468,3.93269-1.35063,5.99165-1.99689,2.05698-.64527,4.05485-1.19005,5.99165-1.63435,1.93679-.44233,3.55046-.66596,4.84297-.66596,2.5003,0,4.13366.68665,4.90208,2.05797.76644,1.37329,1.15065,3.18891,1.15065,5.44785,0,5.08334-.02167,10.14895-.06108,15.1919-.04138,5.04492-.06108,10.10758-.06108,15.1919h17.43311c2.09639,0,3.71005.54281,4.841,1.62943,1.12897,1.08563,1.69445,2.79288,1.69445,5.12373v16.51791c0,2.57221-.56547,4.42231-1.69445,5.54833-1.13095,1.12503-2.74461,1.68657-4.841,1.68657h-17.43311v22.9706c0,2.78796.0197,5.39366.06108,7.81909.03941,2.42444.06108,5.04985.06108,7.8782v23.02872c0,.16255-.02167.32313-.06108.48568-.04138.16255-.06108.32313-.06108.48469v15.87855c0,5.33357,1.04819,9.17169,3.14852,11.51535,2.09639,2.34366,5.48725,3.51401,10.16866,3.51401,1.69445,0,3.02636.60586,3.99377,1.81661.96938,1.20976,1.4521,2.66284,1.4521,4.35729v16.82724c0,2.09934-.58518,3.7337-1.75356,4.90208-1.17232,1.17134-2.80569,1.75553-4.90405,1.75553Z"/>
    <path class="cls-1" d="M755.64602,1559.03492c-7.10092,6.05272-14.86976,10.81491-23.30259,14.28459-8.4348,3.46869-17.69516,5.20452-27.78106,5.20452-10.89569,0-21.22591-2.05698-30.99066-6.17291s-18.32171-9.76376-25.663-16.94842c-7.34523-7.1817-13.17729-15.59483-17.49222-25.23939-4.31887-9.64259-6.47634-20.03487-6.47634-31.17192,0-7.1817.88663-14.12105,2.66186-20.82102,1.77523-6.69799,4.2972-12.97139,7.56591-18.82413,3.26871-5.84978,7.24278-11.21586,11.92418-16.10021,4.67943-4.88139,9.90661-9.0584,15.67758-12.52906,5.769-3.46869,12.0227-6.15321,18.76305-8.0506,6.73641-1.89443,13.86098-2.84411,21.3658-2.84411,6.13154,0,12.18426.74674,18.15817,2.23923,5.97194,1.49446,11.64046,3.61252,17.00752,6.35516,5.36706,2.74461,10.3913,6.07341,15.0727,9.98739,4.67943,3.91496,8.79537,8.33333,12.34582,13.25511,4.84297,6.77976,8.39343,14.0846,10.65335,21.91157,2.25795,7.82795,3.3889,16.50412,3.3889,26.02652,0,2.34169-.10048,4.2972-.30145,5.87047-.20294,1.57426-.70733,2.8451-1.51318,3.81349-.80782.9684-2.01757,1.67573-3.63124,2.11904-1.61564.4443-3.87359.66497-6.77976.66497h-107.37478c1.04819,5.81136,3.04409,10.95579,5.99165,15.43524,2.94558,4.47846,6.43496,8.27324,10.47208,11.37841,4.03318,3.10813,8.43086,5.44785,13.19502,7.02112,4.76022,1.57426,9.52043,2.3604,14.28262,2.3604,3.63321,0,7.12259-.36253,10.47208-1.08858,3.34752-.72704,6.47634-1.69543,9.38251-2.90617,2.9042-1.20976,5.58577-2.60177,8.04863-4.17603,2.46089-1.57327,4.62033-3.20763,6.47634-4.90306,0-.07881.04138-.12019.12216-.12019.96741-.88761,1.89542-1.59298,2.78402-2.11904.88663-.5241,1.81661-.78713,2.78402-.78713.72704,0,1.55259.24235,2.48256.72704.92604.48371,1.83434,1.29152,2.72294,2.4205,2.17914,2.66383,4.03515,4.88434,5.56803,6.65859,1.53288,1.77621,2.78402,3.26772,3.7534,4.47846.96741,1.21074,1.67474,2.26091,2.11806,3.14753.44331.88958.66596,1.77621.66596,2.66383,0,2.25992-1.53485,4.51984-4.60062,6.77878ZM701.89854,1449.84354c-4.76219,0-9.40221.86791-13.92205,2.60275-4.51984,1.73681-8.65547,4.09721-12.4069,7.08121-3.7534,2.98696-7.02211,6.49801-9.80612,10.53217-2.78402,4.03613-4.82326,8.39441-6.1138,13.07385h85.70752c-1.29251-4.92178-3.249-9.42093-5.87146-13.49746-2.62245-4.07456-5.79068-7.58462-9.5027-10.53217-3.71202-2.9446-7.95011-5.22422-12.71033-6.83887-4.76219-1.61367-9.8869-2.42148-15.37416-2.42148Z"/>
    <path class="cls-1" d="M961.43865,1568.84006c0,1.45309-.30342,2.64413-.9083,3.57115-.60488.92899-1.39299,1.65504-2.3604,2.17914-.96938.52607-2.07865.8886-3.32979,1.08957-1.25113.20195-2.56334.30244-3.93466.30244h-15.13181c-2.58305,0-4.37798-.68468-5.38677-2.05797-1.00879-1.37132-1.75553-3.10616-2.23825-5.2055l-.72704-10.28983c-2.82539,2.82638-5.95224,5.46853-9.38251,7.92942-3.43027,2.46286-7.12259,4.59964-11.07499,6.41624-3.95634,1.81562-8.15305,3.22635-12.59014,4.23612-4.43906,1.00879-9.00027,1.51318-13.67971,1.51318-7.26248,0-14.26488-.94869-21.00327-2.84411s-13.05513-4.55826-18.94432-7.98952c-5.89116-3.42929-11.23852-7.56591-16.04011-12.40789-4.80159-4.84297-8.91752-10.20905-12.34779-16.10119-3.43027-5.88919-6.0941-12.22564-7.98952-19.0054-1.89739-6.77878-2.8451-13.8393-2.8451-21.18454,0-7.34228.94771-14.40477,2.8451-21.18454,1.89542-6.77878,4.55925-13.11325,7.98952-19.0054,3.43027-5.89018,7.5462-11.23754,12.34779-16.03913,4.80159-4.80061,10.14895-8.91654,16.04011-12.34779,5.88919-3.42929,12.20593-6.09312,18.94432-7.98952,6.73838-1.89542,13.74079-2.8451,21.00327-2.8451,5.16412,0,10.08787.54478,14.76928,1.63435,4.67943,1.08957,9.05741,2.62344,13.13394,4.59964,4.07456,1.97915,7.84766,4.35828,11.3193,7.14229,3.46771,2.785,6.61623,5.83205,9.44162,9.14017l1.69445-12.95267c.40391-1.45309.78812-2.64314,1.15065-3.57115.36253-.92702.80585-1.67474,1.33191-2.24022.5241-.5635,1.19005-.94771,1.99787-1.14966.80585-.20097,1.81464-.30244,3.02636-.30244h12.10545c1.28857,0,2.58108.12117,3.87359.36253,1.28857.24235,2.46089.62655,3.50908,1.15065,1.04819.52607,1.87768,1.25212,2.48256,2.17914.60488.92801.9083,2.07865.9083,3.44997v139.81754ZM835.54119,1498.99138c0,6.45762,1.12897,12.57142,3.3889,18.34042,2.25992,5.77097,5.40647,10.83363,9.44359,15.1919,4.03318,4.35828,8.77566,7.80825,14.22351,10.34992,5.44785,2.54266,11.39812,3.81349,17.85475,3.81349,6.53742,0,12.65122-1.27084,18.34141-3.81349,5.68822-2.54167,10.63167-5.99165,14.82839-10.34992,4.19474-4.35828,7.50483-9.42093,9.92631-15.1919,2.42148-5.769,3.63124-11.88281,3.63124-18.34042,0-6.37388-1.20976-12.44729-3.63124-18.21827-2.42148-5.769-5.73157-10.83461-9.92631-15.19289-4.19671-4.35729-9.14017-7.82697-14.82839-10.41002-5.69019-2.58206-11.80399-3.87359-18.34141-3.87359-6.45663,0-12.4069,1.29152-17.85475,3.87359-5.44785,2.58305-10.19033,6.05272-14.22351,10.41002-4.03712,4.35828-7.18367,9.42389-9.44359,15.19289-2.25992,5.77097-3.3889,11.84439-3.3889,18.21827Z"/>
    <path class="cls-1" d="M993.1524,1383.86845c0-2.09737.5635-3.83122,1.69445-5.20452,1.12897-1.37132,2.86283-2.05797,5.2055-2.05797h21.18454c1.61367,0,3.12685.68665,4.53954,2.05797,1.41073,1.37329,2.11806,3.10714,2.11806,5.20452v184.85044c0,2.42148-.66596,4.2371-1.99787,5.44785s-3.12882,1.81562-5.38677,1.81562h-20.21515c-2.58502,0-4.41936-.60488-5.50892-1.81562s-1.63337-3.02636-1.63337-5.44785v-184.85044Z"/>
  </g>
  <g>
    <path class="cls-1" d="M1096.85016,1424.15853c2.05698-1.0078,4.61835-1.51318,7.68609-1.51318h12.22662c2.33972,0,4.07456.77038,5.2055,2.31016,1.12897,1.53978,1.89542,3.24211,2.3013,5.10502l1.33191,11.66804c1.85601-2.75348,3.9918-5.40548,6.41526-7.95701,2.41951-2.55152,5.30401-4.79864,8.6535-6.74331s7.26248-3.50317,11.74292-4.67746,9.70564-1.76341,15.67561-1.76341c5.65079,0,10.77353.54675,15.37613,1.64026,4.59865,1.09351,8.75596,2.71407,12.46798,4.8607,3.71202,2.14761,7.06151,4.77992,10.04847,7.89691,2.98302,3.11995,5.69019,6.7039,8.1097,10.75383,1.93482-3.80561,4.55925-7.29007,7.86933-10.44844,3.30614-3.15936,7.12062-5.85077,11.43949-8.07917,4.31493-2.22741,9.05938-3.94944,14.22154-5.16314,5.16609-1.21468,10.53316-1.8235,16.10119-1.8235,9.52043,0,17.89415,1.73582,25.12117,5.2055,7.21913,3.47066,13.25216,8.23088,18.09512,14.2836s8.49194,13.11621,10.9548,21.18454c2.46286,8.07128,3.69232,16.70607,3.69232,25.90633v80.74338c0,2.9042-.68566,5.10502-2.05698,6.59652-1.37132,1.49545-3.34949,2.24022-5.93057,2.24022h-18.40249c-3.22733,0-5.38677-.60291-6.47437-1.81464-1.09154-1.20779-1.63534-3.34555-1.63534-6.40935v-81.26748c0-4.27257-.60291-8.42495-1.81661-12.45715-1.20976-4.03121-3.08547-7.59842-5.62714-10.70162-2.54167-3.10419-5.73354-5.60251-9.56378-7.49793-3.83418-1.89542-8.41313-2.84313-13.74079-2.84313-4.43709,0-8.55499.78713-12.34582,2.35843-3.79477,1.57426-7.06545,3.83024-9.80809,6.77385-2.74264,2.94262-4.90208,6.48914-6.47437,10.64152-1.57229,4.1514-2.3604,8.7668-2.3604,13.84718v80.66359c0,5.80447-2.62442,8.7067-7.86933,8.7067h-18.52071c-3.22733,0-5.36706-.60291-6.41526-1.81464-1.05213-1.20779-1.57623-3.34555-1.57623-6.40935v-81.14631c0-4.19179-.58321-8.28506-1.75356-12.27588s-2.98696-7.55802-5.44588-10.70162c-2.46286-3.14359-5.63108-5.68428-9.50467-7.6191s-8.47224-2.90322-13.7999-2.90322c-3.71202,0-7.42404.70536-11.13607,2.11609-3.71202,1.41171-7.08121,3.448-10.10758,6.10789-3.02636,2.66087-5.50892,5.92564-7.44769,9.79627-1.93482,3.86965-2.94361,8.26339-3.02636,13.18123v84.53422c0,2.09639-.68566,3.80857-2.05698,5.13851-1.37132,1.33191-3.10911,1.9959-5.2055,1.9959h-19.97379c-2.66284,0-4.62033-.62458-5.87047-1.87571-1.25212-1.25113-1.8767-3.04607-1.8767-5.38677v-139.33482c0-2.74264,1.02948-4.61835,3.08744-5.62911Z"/>
    <path class="cls-1" d="M1408.01871,1618.18853c-.72704,1.77523-1.65504,3.08744-2.78402,3.93466-1.13095.84722-2.62442,1.27084-4.47846,1.27084h-22.7588c-2.25992,0-3.81448-.38224-4.6617-1.14868-.84722-.76841-1.27084-1.71612-1.27084-2.8451,0-.56547.10048-1.37329.30342-2.42148.20097-1.05016.38224-1.65504.5438-1.81661l21.30669-54.35236-53.98983-131.58666c0-.16058-.04335-.28175-.12216-.36253v-1.08957c-.40391-.88761-.60488-1.89542-.60488-3.02636,0-1.37132.48469-2.46089,1.4521-3.26871.96938-.80585,2.46089-1.21074,4.47846-1.21074h21.91157c3.46968,0,5.84978,1.69445,7.14229,5.08433l2.17914,5.68921c1.61367,4.52083,3.4283,9.58447,5.44785,15.19289,2.0156,5.61039,4.11593,11.40009,6.29507,17.37104,2.17914,5.97391,4.37601,11.96556,6.59652,17.97691,2.21854,6.01332,4.3169,11.66312,6.29507,16.94743,1.9762,5.28628,3.77113,10.04748,5.38677,14.28459,1.61367,4.2371,2.90617,7.56591,3.87359,9.98739l35.83166-97.44945c.72704-1.77424,1.65307-3.08646,2.78599-3.93368,1.12897-.84821,2.62048-1.27182,4.47846-1.27182h22.7588c2.25795,0,3.81251.38421,4.65973,1.15065.84722.76743,1.27084,1.71514,1.27084,2.84411,0,.56547-.10245,1.37329-.30342,2.42148-.20097,1.05016-.38224,1.65504-.5438,1.81562l-73.47992,189.81261Z"/>
  </g>
  <g>
    <g>
      <path class="cls-1" d="M1540.78684,1532.89502c1.69445,2.66383,3.83221,4.96513,6.41624,6.90192,2.58108,1.93679,5.2252,3.53076,7.92844,4.77992,2.70323,1.2531,5.28431,2.16141,7.74717,2.72491,2.46286.56547,4.41739.84722,5.87146.84722,2.25795,0,4.92178-.24235,7.99149-.72704,3.06577-.48272,5.95027-1.34965,8.6535-2.60275,2.70323-1.24916,5.00453-2.94361,6.89995-5.08334,1.89542-2.13776,2.8451-4.8607,2.8451-8.17078,0-3.22733-.74871-5.85175-2.23825-7.86933-1.49348-2.0156-3.51105-3.69232-6.05272-5.02423-2.54167-1.33191-5.44982-2.43922-8.71655-3.32782-3.27068-.8886-6.71868-1.85601-10.35189-2.90617-8.47224-2.25795-15.69531-4.98286-21.66726-8.17078-5.97391-3.18793-10.87599-6.83887-14.7082-10.9548-3.83418-4.11593-6.63888-8.63577-8.41313-13.55952-1.77621-4.92178-2.66383-10.28884-2.66383-16.09922,0-6.53742,1.29054-12.50936,3.87359-17.91583,2.58206-5.40647,6.21429-10.04847,10.89569-13.92205,4.67943-3.87359,10.30855-6.87827,16.88635-9.01801,6.57584-2.13776,13.86196-3.20763,21.84951-3.20763,5.65079,0,10.69472.50439,15.13181,1.51318s8.55499,2.52197,12.34976,4.53954c3.79083,2.01757,7.361,4.55925,10.71048,7.62501,3.34949,3.06774,6.76203,6.65957,10.22973,10.7755,1.2137,1.4521,1.81661,2.8648,1.81661,4.23612,0,1.4521-.80782,2.82539-2.41951,4.11593-1.20976.96741-2.64413,2.17914-4.29917,3.63124s-3.29038,2.8648-4.90208,4.23612c-1.61564,1.37329-3.14852,2.54364-4.59865,3.51105-1.45407.96938-2.66383,1.45407-3.63321,1.45407-1.7772,0-3.51105-1.04819-5.2055-3.14852-1.7772-2.09836-3.55046-3.93466-5.32766-5.50695-1.77326-1.57426-3.62927-2.8648-5.56803-3.87556-1.93482-1.00682-4.03515-1.77326-6.2931-2.29933-2.26189-.5241-4.72081-.78614-7.38464-.78614-2.17914,0-4.46073.32313-6.84084.96741-2.38011.64822-4.55925,1.61564-6.53742,2.90617-1.97817,1.29251-3.62927,2.8451-4.96118,4.65973-1.33191,1.81661-1.99787,3.85585-1.99787,6.1138,0,2.58305.82358,4.78189,2.47862,6.59652,1.6511,1.81661,3.74355,3.39087,6.28128,4.72278,2.53773,1.32994,5.30007,2.44119,8.27915,3.32782,2.98302.8886,5.76112,1.69445,8.3422,2.42148,7.41222,2.10033,14.22154,4.51984,20.424,7.26248,6.20641,2.74461,11.54589,6.0744,16.0145,9.98739,4.47255,3.91496,7.95602,8.51558,10.45435,13.7999,2.49833,5.28825,3.74749,11.48284,3.74749,18.58178,0,7.5068-1.48954,14.22548-4.46467,20.15604-2.97513,5.93254-7.09698,10.95677-12.36553,15.07073-5.26855,4.11593-11.50648,7.26445-18.71773,9.44359-7.21125,2.17914-15.053,3.26871-23.52524,3.26871-5.08334,0-10.24944-.54577-15.49434-1.63534-5.24885-1.08957-10.2721-2.78402-15.0727-5.08334-4.80258-2.3013-9.24164-5.24491-13.31619-8.83674-4.07653-3.58986-7.48611-7.84766-10.22875-12.77141-1.21074-2.01757-1.81661-3.83221-1.81661-5.44785,0-1.04819.26106-1.9565.78713-2.72294.5241-.76644,1.22946-1.51318,2.11904-2.24022l13.55755-10.411c1.21074-.72704,2.30031-1.08957,3.26871-1.08957,1.12897,0,2.13678.38421,3.02636,1.15065.88663.76841,1.85503,1.7969,2.90519,3.08547Z"/>
      <path class="cls-1" d="M1811.464,1569.09118c0,1.4521-.30342,2.64413-.9083,3.57213s-1.39299,1.65504-2.3604,2.17717c-.96938.52607-2.07865.89057-3.32979,1.08957-1.25113.20294-2.56334.30342-3.93466.30342h-15.13181c-2.58305,0-4.37798-.68566-5.38677-2.05698s-1.75553-3.10714-2.23825-5.2055l-.72704-10.29081c-2.82539,2.82539-5.95224,5.46952-9.38251,7.93041s-7.12259,4.59865-11.07499,6.41526c-3.95634,1.81464-8.15305,3.22733-12.59014,4.23612-4.43906,1.00879-9.00027,1.51318-13.67971,1.51318-7.26248,0-14.26488-.94968-21.00327-2.8451s-13.05513-4.55728-18.94432-7.98952c-5.89116-3.4283-11.23852-7.56591-16.04011-12.4069-4.80159-4.84297-8.91752-10.20806-12.34779-16.10119-3.43027-5.88919-6.0941-12.22564-7.98952-19.0054-1.89739-6.77779-2.8451-13.8393-2.8451-21.18454,0-7.34326.94771-14.40477,2.8451-21.18454,1.89542-6.77779,4.55925-13.11424,7.98952-19.0054,3.43027-5.88919,7.5462-11.23655,12.34779-16.04011,4.80159-4.79962,10.14895-8.91555,16.04011-12.34779,5.88919-3.4283,12.20593-6.09213,18.94432-7.98952,6.73838-1.89542,13.74079-2.84313,21.00327-2.84313,5.16412,0,10.08787.5438,14.76928,1.63337,4.67943,1.08957,9.05741,2.62245,13.13394,4.60062,4.07456,1.97817,7.84766,4.35828,11.3193,7.14229,3.46771,2.78402,6.61623,5.83008,9.44162,9.1382l1.69445-12.95267c.40391-1.4521.78812-2.64216,1.15065-3.57016s.80585-1.67474,1.33191-2.24022c.5241-.5635,1.19005-.94771,1.99787-1.15065.80585-.199,1.81464-.30145,3.02636-.30145h12.10545c1.28857,0,2.58108.12019,3.87359.36253,1.28857.24235,2.46089.62655,3.50908,1.15065,1.04819.52607,1.87768,1.25113,2.48256,2.17914s.9083,2.07865.9083,3.44997v139.81754ZM1685.56655,1499.2425c0,6.4586,1.12897,12.57044,3.3889,18.33944,2.25992,5.77097,5.40647,10.83461,9.44359,15.19289,4.03318,4.35828,8.77566,7.80825,14.22351,10.34992s11.39812,3.81448,17.85475,3.81448c6.53742,0,12.65122-1.27281,18.34141-3.81448,5.68822-2.54167,10.63167-5.99165,14.82839-10.34992,4.19474-4.35828,7.50483-9.42192,9.92631-15.19289,2.42148-5.769,3.63124-11.88084,3.63124-18.33944,0-6.37388-1.20976-12.44828-3.63124-18.21925-2.42148-5.769-5.73157-10.83264-9.92631-15.19092-4.19671-4.35828-9.14017-7.82795-14.82839-10.411-5.69019-2.58305-11.80399-3.87359-18.34141-3.87359-6.45663,0-12.4069,1.29054-17.85475,3.87359s-10.19033,6.05272-14.22351,10.411c-4.03712,4.35828-7.18367,9.42192-9.44359,15.19092-2.25992,5.77097-3.3889,11.84537-3.3889,18.21925Z"/>
      <path class="cls-1" d="M1846.38539,1424.00706c2.05698-1.00682,4.61835-1.51318,7.68609-1.51318h12.22761c2.33873,0,4.07259.77038,5.2055,2.30918,1.12897,1.54077,1.89345,3.24309,2.29933,5.10502l1.33191,11.67002c1.85601-2.75446,3.99377-5.40647,6.41526-7.95799s5.30599-4.79962,8.65547-6.74233c3.34752-1.94467,7.26248-3.50317,11.74292-4.67943,4.47846-1.17429,9.70367-1.76144,15.67561-1.76144,5.64882,0,10.77353.54577,15.37416,1.63928,4.60062,1.09351,8.75596,2.71506,12.46798,4.8607,3.71202,2.14761,7.06151,4.77992,10.04847,7.89691,2.98499,3.11897,5.69019,6.70292,8.1097,10.75383,1.93679-3.8066,4.55925-7.29007,7.86933-10.44844,3.30811-3.15837,7.12062-5.84978,11.43949-8.07818,4.3169-2.2284,9.05938-3.95043,14.22351-5.16412s10.53316-1.82449,16.10119-1.82449c9.52043,0,17.89415,1.73779,25.1192,5.2055,7.22111,3.47165,13.25413,8.23186,18.09709,14.28459,4.841,6.05272,8.49194,13.11621,10.9548,21.18454,2.46089,8.07227,3.69232,16.70607,3.69232,25.90534v80.74437c0,2.9042-.68566,5.10502-2.05698,6.59652-1.37329,1.49545-3.35146,2.24022-5.93254,2.24022h-18.40052c-3.2293,0-5.38677-.60291-6.47634-1.81464-1.08957-1.20779-1.63337-3.34555-1.63337-6.40935v-81.26649c0-4.27355-.60488-8.42495-1.81661-12.45813-1.20976-4.03121-3.08744-7.59743-5.62911-10.7026-2.54167-3.1032-5.73157-5.60153-9.56378-7.49695-3.83418-1.89542-8.41313-2.84313-13.73882-2.84313-4.43906,0-8.55499.78614-12.34779,2.35843-3.79477,1.57426-7.06348,3.83024-9.80612,6.77385-2.74461,2.94361-4.90208,6.49013-6.47634,10.64152-1.57229,4.1514-2.3604,8.76581-2.3604,13.84718v80.66359c0,5.80447-2.62245,8.7067-7.86736,8.7067h-18.52268c-3.22733,0-5.36706-.60291-6.41526-1.81464-1.05016-1.20779-1.57426-3.34555-1.57426-6.40935v-81.14631c0-4.1908-.58518-8.28506-1.75553-12.27489-1.17035-3.9918-2.98499-7.55999-5.44588-10.7026-2.46286-3.14458-5.62911-5.68428-9.5027-7.6191-3.87359-1.93482-8.47421-2.9042-13.80187-2.9042-3.71202,0-7.42404.70536-11.13607,2.11806-3.71202,1.41073-7.08121,3.448-10.10758,6.10592-3.02636,2.66186-5.50892,5.92663-7.44572,9.79627-1.93679,3.86965-2.94558,8.26536-3.02636,13.1832v84.53323c0,2.09639-.68566,3.80857-2.05698,5.13851-1.37329,1.33191-3.10911,1.9959-5.2055,1.9959h-19.97478c-2.66186,0-4.62033-.62458-5.87146-1.87571s-1.87571-3.04607-1.87571-5.38677v-139.33482c0-2.74264,1.02849-4.61835,3.08744-5.62911Z"/>
      <path class="cls-1" d="M2107.19436,1423.22092c1.04819-.48469,2.11806-.78812,3.20763-.9083s2.15747-.18127,3.20763-.18127h12.22761c2.41951,0,4.13366.68566,5.14442,2.05698,1.00879,1.37329,1.71415,3.10911,2.11806,5.2055l2.54167,14.76928c2.82539-3.22733,5.83008-6.29507,9.01998-9.19927,3.18596-2.90617,6.71671-5.48725,10.59227-7.74914,3.87359-2.25795,8.14911-4.05485,12.83051-5.38677,4.67943-1.33191,9.92631-1.9959,15.73669-1.9959,7.34326,0,14.34567.94771,21.00327,2.84313,6.6576,1.89739,12.87189,4.56122,18.64286,7.98952,5.769,3.43224,10.99421,7.54817,15.67561,12.34779,4.6814,4.80356,8.69685,10.15092,12.04634,16.04011,3.34752,5.89116,5.93057,12.22761,7.74717,19.0054,1.81661,6.77976,2.72294,13.84127,2.72294,21.18454,0,7.34523-.90633,14.40674-2.72294,21.18454-1.81661,6.77976-4.39965,13.11621-7.74717,19.0054-3.34949,5.89313-7.36494,11.25822-12.04634,16.10119-4.6814,4.841-9.90661,8.9786-15.67561,12.4069-5.77097,3.43224-12.00496,6.0941-18.70197,7.98952-6.70095,1.89542-13.67971,2.8451-20.94416,2.8451-5.24688,0-10.06817-.56547-14.46585-1.69445-4.39965-1.12897-8.47224-2.68156-12.22564-4.65973s-7.22308-4.27749-10.411-6.89995c-3.1899-2.62245-6.19459-5.42814-9.01801-8.4151v58.95495c0,1.93679-.60488,3.58986-1.81661,4.96316-1.20976,1.37132-3.02636,2.05698-5.44785,2.05698h-20.09497c-1.69445,0-3.36919-.62458-5.02226-1.87571-1.65504-1.2531-2.48256-2.96528-2.48256-5.14442v-186.78723c0-1.69445.38224-3.02636,1.15065-3.99574.76644-.96741,1.83434-1.65307,3.20763-2.05698ZM2227.15928,1499.2425c0-6.37388-1.15065-12.44828-3.44997-18.21925-2.29933-5.769-5.44785-10.81294-9.44162-15.13181-3.99574-4.31493-8.73823-7.74717-14.22548-10.28884-5.48922-2.54167-11.41979-3.81251-17.79367-3.81251-6.37585,0-12.36947,1.25113-17.97691,3.75143-5.61138,2.50227-10.53119,5.87146-14.76928,10.10955-4.23612,4.23612-7.62698,9.17957-10.16866,14.82839s-3.85388,11.62076-3.93466,17.91583v.84722c0,6.4586,1.22946,12.59014,3.69232,18.40052,2.46089,5.81038,5.81038,10.89569,10.04847,15.252,4.23612,4.35828,9.19927,7.82992,14.88947,10.411,5.69019,2.58502,11.76065,3.87359,18.21925,3.87359,6.37388,0,12.30445-1.28857,17.79367-3.87359,5.48725-2.58108,10.22973-6.05272,14.22548-10.411,3.99377-4.35631,7.14229-9.44162,9.44162-15.252s3.44997-11.94191,3.44997-18.40052Z"/>
      <path class="cls-1" d="M2289.50313,1384.12055c0-2.09836.5635-3.83221,1.69445-5.2055,1.12897-1.37132,2.86283-2.05895,5.2055-2.05895h21.18454c1.61367,0,3.12685.68763,4.53954,2.05895,1.41073,1.37329,2.11806,3.10714,2.11806,5.2055v184.85044c0,2.41951-.66596,4.23612-1.99787,5.44588-1.33191,1.21173-3.12882,1.81661-5.38677,1.81661h-20.21515c-2.58502,0-4.41936-.60488-5.50892-1.81661-1.08957-1.20976-1.63337-3.02636-1.63337-5.44588v-184.85044Z"/>
      <path class="cls-1" d="M2483.9134,1559.28506c-7.10092,6.05272-14.86976,10.81688-23.30259,14.28459-8.4348,3.46968-17.69516,5.2055-27.78106,5.2055-10.89569,0-21.22591-2.05698-30.99066-6.17291s-18.32171-9.76475-25.663-16.94842c-7.34523-7.1817-13.17729-15.59483-17.49222-25.23939-4.31887-9.64259-6.47634-20.03389-6.47634-31.17192,0-7.1817.88663-14.12105,2.66186-20.822,1.77523-6.69701,4.2972-12.97041,7.56591-18.82216s7.24278-11.21685,11.92418-16.10119c4.67943-4.88237,9.90661-9.05741,15.67758-12.52906,5.769-3.46968,12.0227-6.15321,18.76305-8.0506,6.73641-1.89542,13.86098-2.8451,21.3658-2.8451,6.13154,0,12.18426.74871,18.15817,2.24022,5.97194,1.49348,11.64046,3.61351,17.00752,6.35615,5.36706,2.74461,10.3913,6.07243,15.0727,9.98542,4.67943,3.91693,8.79537,8.33432,12.34582,13.2561,4.84297,6.77976,8.39343,14.08362,10.65335,21.91157,2.25795,7.82795,3.3889,16.5051,3.3889,26.02553,0,2.34267-.10048,4.2972-.30145,5.87146-.20294,1.57426-.70733,2.8451-1.51318,3.81448-.80782.96741-2.01757,1.67474-3.63124,2.11806-1.61564.44331-3.87359.66596-6.77976.66596h-107.37478c1.04819,5.81038,3.04409,10.9548,5.99165,15.43326,2.94558,4.48043,6.43496,8.27324,10.47208,11.38038,4.03318,3.10714,8.43086,5.44588,13.19502,7.02014,4.76022,1.57426,9.52043,2.3604,14.28262,2.3604,3.63321,0,7.12259-.36253,10.47208-1.08957,3.34752-.72507,6.47634-1.69445,9.38251-2.9042,2.9042-1.21173,5.58577-2.60275,8.04863-4.17701,2.46089-1.57426,4.62033-3.20763,6.47634-4.90208,0-.08078.04138-.12216.12216-.12216.96741-.88663,1.89542-1.59199,2.78402-2.11806.88663-.5241,1.81661-.78614,2.78402-.78614.72704,0,1.55259.24235,2.48256.72507.92604.48469,1.83434,1.29251,2.72294,2.42148,2.17914,2.66383,4.03515,4.88434,5.56803,6.6576,1.53288,1.7772,2.78402,3.26871,3.7534,4.48043.96741,1.20976,1.67474,2.25992,2.11806,3.14655.44331.8886.66596,1.7772.66596,2.66383,0,2.25992-1.53485,4.51984-4.60062,6.77779ZM2430.16592,1450.09564c-4.76219,0-9.40221.86693-13.92205,2.60078-4.51984,1.73779-8.65547,4.0982-12.4069,7.08318-3.7534,2.98696-7.02211,6.49604-9.80612,10.53119-2.78402,4.03712-4.82326,8.39343-6.1138,13.07483h85.70752c-1.29251-4.92178-3.249-9.42192-5.87146-13.49844-2.62245-4.07456-5.79068-7.58561-9.5027-10.53119-3.71202-2.94558-7.95011-5.2252-12.71033-6.84084-4.76219-1.61367-9.8869-2.41951-15.37416-2.41951Z"/>
    </g>
    <g>
      <path class="cls-1" d="M2518.44072,1421.81362c0-.37654.1223-.67814.36712-.90388.24459-.2262.55539-.33884.93216-.33884h29.71646c.33907,0,.64481.10345.91814.31034.27264.20781.42803.51815.46596.93239v4.94332c0,.377-.1177.70619-.35309.98848-.23563.28275-.57907.4239-1.03101.4239h-10.73397v33.0497c0,.33884-.11793.64044-.35309.90388-.23563.2639-.56067.39539-.97469.39539h-5.56468c-.33884,0-.64527-.1223-.91814-.36735-.2731-.24459-.40941-.55493-.40941-.93193v-33.0497h-10.76247c-.37677,0-.68757-.11724-.93216-.35309-.24482-.2354-.36712-.58849-.36712-1.05928v-4.94332Z"/>
      <path class="cls-1" d="M2559.82262,1421.81362c.0377-.35769.17885-.65424.4239-.88963.24436-.2354.55516-.35309.93216-.35309h7.06188c.65883,0,1.09193.35769,1.29928,1.07308l9.97146,27.79559c1.67582-4.66976,3.35646-9.30274,5.04217-13.89756,1.68501-4.59482,3.35669-9.22734,5.01389-13.89802.26344-.71538.69653-1.07308,1.29951-1.07308h7.08993c.37654,0,.68251.1223.91814.36689.23517.24505.36229.537.38137.87584.69653,6.60994,1.40272,13.19138,2.11856,19.74523.71538,6.55339,1.431,13.12563,2.14684,19.71672v.0846c0,.77239-.41447,1.15813-1.24296,1.15813h-5.48009c-.84733,0-1.29008-.41378-1.32755-1.24273l-2.8813-26.72251-9.40642,25.98782c-.09448.2639-.24482.50849-.45194.73469-.20735.22574-.42367.33884-.64964.33884h-5.08446c-.24505,0-.47102-.10804-.67814-.32505-.20735-.21609-.35792-.46573-.45194-.74849-1.54433-4.35023-3.09785-8.67195-4.6608-12.96563-1.56341-4.29368-3.13555-8.6246-4.71735-12.99368l-2.8813,26.69401c0,.82894-.43332,1.24273-1.29928,1.24273h-5.48009c-.82894,0-1.24296-.41378-1.24296-1.24273l4.23713-39.46195Z"/>
    </g>
  </g>
</svg>