<?xml version="1.0" encoding="UTF-8"?>
<svg id="Calque_1" data-name="Calque 1" xmlns="http://www.w3.org/2000/svg" viewBox="0 0 3000 3000">
  <defs>
    <style>
      .cls-1 {
        fill: #fff;
      }

      .cls-2 {
        fill: #e20000;
      }
    </style>
  </defs>
  <g>
    <path class="cls-1" d="M1065.68068,1202.5241c2.58413,4.061,5.84435,7.56911,9.78515,10.52283,3.9363,2.95373,7.96875,5.38612,12.09134,7.29267,4.1226,1.90955,8.05889,3.29477,11.8149,4.15415,3.75601.86238,6.73678,1.29207,8.95433,1.29207,3.44351,0,7.50601-.36959,12.1875-1.10727,4.67548-.73918,9.07452-2.0598,13.19711-3.96935,4.1226-1.90655,7.63221-4.49219,10.52283-7.7539,2.89062-3.26022,4.33894-7.41436,4.33894-12.46244,0-4.92037-1.14183-8.92127-3.41346-11.9997-2.27764-3.07542-5.35457-5.63101-9.23077-7.66076-3.8762-2.03125-8.3113-3.72145-13.29327-5.07812-4.98798-1.35216-10.24639-2.82903-15.78726-4.43059-12.92067-3.44351-23.93629-7.59765-33.04386-12.46094-9.11058-4.86028-16.58654-10.43119-22.43089-16.70823-5.84735-6.27704-10.1247-13.16857-12.83053-20.67608-2.70883-7.50601-4.0625-15.69261-4.0625-24.55378,0-9.96995,1.96815-19.07602,5.90745-27.32421,3.9378-8.24369,9.47716-15.32301,16.61658-21.23046,7.13642-5.90745,15.72115-10.49128,25.7527-13.753,10.02854-3.26022,21.14032-4.89333,33.32181-4.89333,8.61779,0,16.31009.77073,23.07692,2.30769,6.76683,1.54147,13.04687,3.84916,18.83413,6.92308,5.78125,3.07842,11.22596,6.95463,16.33413,11.63161,5.10817,4.67848,10.3125,10.15324,15.60096,16.43029,1.85096,2.21605,2.77043,4.37049,2.77043,6.46184,0,2.21454-1.23197,4.30889-3.6899,6.27704-1.84495,1.47686-4.03245,3.32332-6.55649,5.53786-2.52404,2.21605-5.01803,4.37049-7.47596,6.46184-2.46394,2.09435-4.80168,3.8762-7.01322,5.35306-2.21755,1.47837-4.0625,2.21605-5.54086,2.21605-2.71034,0-5.35457-1.59856-7.9387-4.80018-2.71034-3.19862-5.41466-5.9991-8.125-8.39994-2.70433-2.39934-5.53485-4.36749-8.49158-5.90745-2.95072-1.53696-6.15384-2.70583-9.59735-3.50811-3.44952-.79928-7.19952-1.19892-11.26202-1.19892-3.32332,0-6.80288.49279-10.43269,1.47686-3.62981.98558-6.95312,2.46244-9.96995,4.43059-3.01683,1.96965-5.53485,4.33744-7.5661,7.10787-2.03125,2.76893-3.04687,5.87891-3.04687,9.32241,0,3.9408,1.25601,7.29267,3.78005,10.0616,2.51803,2.76893,5.70913,5.16977,9.57933,7.19952,3.87019,2.03125,8.08293,3.72446,12.6262,5.07662,4.54928,1.35667,8.78606,2.58564,12.72235,3.69291,11.30408,3.20162,21.6887,6.89453,31.14783,11.07722,9.46514,4.1857,17.60817,9.26232,24.42307,15.22986,6.82091,5.97205,12.13341,12.98678,15.94351,21.04717,3.8101,8.0619,5.71514,17.50901,5.71514,28.33834,0,11.44531-2.27163,21.6917-6.80889,30.73767-4.53726,9.04747-10.82332,16.70823-18.85817,22.98527s-17.54807,11.07722-28.54567,14.40054c-10.99759,3.32181-22.95673,4.98347-35.8774,4.98347-7.7524,0-15.63101-.83083-23.6298-2.49249-8.00481-1.66016-15.66556-4.24579-22.98677-7.7524-7.32422-3.50811-14.09405-8.0003-20.30799-13.47806-6.21695-5.47476-11.41676-11.96815-15.59946-19.47716-1.84645-3.07392-2.77043-5.84285-2.77043-8.30679,0-1.59856.39814-2.98227,1.20042-4.15415.79928-1.16887,1.875-2.30769,3.23167-3.41496l20.67608-15.8774c1.84645-1.10727,3.50811-1.66166,4.98497-1.66166,1.72175,0,3.25871.58594,4.61538,1.75481,1.35216,1.17037,2.82903,2.74038,4.43059,4.70703Z"/>
    <path class="cls-1" d="M1327.64728,1268.61633c-9.72356-.12169-18.86117-1.60156-27.41586-4.43359s-16.0006-6.92909-22.33774-12.28816c-6.34014-5.36058-11.35216-11.95162-15.04507-19.77464s-5.53786-16.72476-5.53786-26.70522v-124.73705h-21.23197c-3.56971,0-6.24699-.79627-8.03185-2.38882-1.78486-1.59105-2.67728-4.22776-2.67728-7.90865v-26.47836c0-3.55318.89243-6.06971,2.67728-7.54056s4.46214-2.20703,8.03185-2.20703h21.23197c0-6.52193.02704-13.01532.09014-19.47566.0601-6.46184.09315-12.95222.09315-19.47716,0-2.46094.76623-4.39904,2.30769-5.8158,1.53846-1.41376,3.90625-2.67728,7.10637-3.78455,2.09135-.73918,4.61538-1.63011,7.57211-2.67728,2.95373-1.04417,5.99759-2.0598,9.13762-3.04537,3.13702-.98407,6.18389-1.8149,9.13762-2.49249,2.95373-.67458,5.41466-1.01562,7.38582-1.01562,3.8131,0,6.30409,1.04718,7.47596,3.13852,1.16887,2.09435,1.75481,4.86328,1.75481,8.30829,0,7.7524-.03305,15.47776-.09315,23.16857-.0631,7.69381-.09315,15.41466-.09315,23.16857h26.58653c3.19711,0,5.65805.82782,7.38281,2.48498,1.72175,1.65565,2.58413,4.25931,2.58413,7.814v25.1908c0,3.92278-.86238,6.74429-2.58413,8.46154-1.72476,1.71574-4.1857,2.57211-7.38281,2.57211h-26.58653v35.03154c0,4.2518.03005,8.22566.09315,11.92458.0601,3.69742.09315,7.70132.09315,12.01472v35.12019c0,.2479-.03305.49279-.09315.74068-.0631.2479-.09315.49279-.09315.73918v24.21574c0,8.13401,1.59856,13.98738,4.80168,17.5616,3.19711,3.57422,8.36839,5.35907,15.50781,5.35907,2.58413,0,4.61538.92398,6.09074,2.77043,1.47837,1.84495,2.21454,4.061,2.21454,6.64513v25.66256c0,3.20162-.89243,5.69411-2.67428,7.47596-1.78786,1.78636-4.27885,2.67728-7.47896,2.67728Z"/>
    <path class="cls-1" d="M1574.29387,1242.77048c-10.82932,9.23077-22.67728,16.49339-35.53785,21.78485-12.86358,5.28996-26.98617,7.9372-42.36778,7.9372-16.61658,0-32.37079-3.13702-47.26261-9.41406s-27.9417-14.89032-39.13761-25.84735c-11.20192-10.95252-20.09615-23.78305-26.67668-38.49158-6.58654-14.70553-9.8768-30.55438-9.8768-47.53905,0-10.95252,1.35216-21.53545,4.05949-31.7533,2.70733-10.21484,6.55348-19.78215,11.53846-28.70793,4.98497-8.92127,11.04567-17.10486,18.18509-24.55378,7.13642-7.44441,15.10817-13.8146,23.90925-19.10757,8.79808-5.28996,18.33533-9.38401,28.61478-12.27764,10.27344-2.88912,21.13882-4.33744,32.58413-4.33744,9.35096,0,18.58173,1.13882,27.6923,3.41496,9.10757,2.27915,17.7524,5.50931,25.93749,9.69201,8.18509,4.1857,15.84735,9.26232,22.98677,15.23137,7.13642,5.97055,13.41346,12.70883,18.82812,20.21484,7.38582,10.33954,12.80048,21.47986,16.24699,33.41646,3.44351,11.9381,5.16827,25.16977,5.16827,39.692,0,3.57121-.15325,6.55348-.45974,8.95282-.3095,2.40084-1.07873,4.33894-2.30769,5.8158-1.23197,1.47686-3.07692,2.55559-5.53786,3.23167-2.46394.67758-5.90745,1.01412-10.33954,1.01412h-163.75297c1.59856,8.86268,4.64243,16.70823,9.13762,23.53966,4.49219,6.82993,9.8137,12.61719,15.97055,17.35276,6.15084,4.74008,12.85757,8.30829,20.12319,10.70763,7.25961,2.40084,14.51923,3.59976,21.78185,3.59976,5.54086,0,10.86238-.55288,15.97055-1.66016,5.10517-1.10877,9.8768-2.58564,14.30889-4.43209,4.42909-1.84495,8.51863-3.96785,12.27464-6.36869,3.753-2.39934,7.04627-4.89183,9.8768-7.47746,0-.12019.0631-.18329.1863-.18329,1.47536-1.35367,2.89062-2.42939,4.24579-3.23167,1.35216-.79928,2.77043-1.20042,4.24579-1.20042,1.10877,0,2.36779.36959,3.78606,1.10877,1.41226.73768,2.79748,1.96965,4.15264,3.69141,3.32332,4.0625,6.15384,7.44892,8.49158,10.15475,2.33774,2.70883,4.24579,4.98347,5.72416,6.82993,1.47536,1.84645,2.55409,3.44802,3.23017,4.80018.67608,1.35667,1.01562,2.70883,1.01562,4.0625,0,3.44651-2.34074,6.89303-7.01622,10.33804ZM1492.32573,1076.24708c-7.26262,0-14.33894,1.32362-21.23197,3.96935-6.89303,2.64874-13.20012,6.2485-18.92127,10.79928-5.72416,4.55529-10.70913,9.90985-14.95492,16.0622-4.24579,6.15535-7.35577,12.80198-9.32392,19.9384h130.70911c-1.97115-7.50601-4.95493-14.36749-8.95433-20.58443-3.9994-6.21394-8.83113-11.567-14.49218-16.0622-5.66106-4.49068-12.1244-7.96725-19.38401-10.42969-7.26262-2.46094-15.07812-3.69291-23.44651-3.69291Z"/>
    <path class="cls-1" d="M1888.13996,1257.72391c0,2.21605-.46274,4.03245-1.38522,5.44621-.92248,1.41677-2.1244,2.52404-3.59976,3.32332-1.47837.80228-3.17007,1.35517-5.07812,1.66166-1.90805.30799-3.90925.46124-6.0006.46124h-23.07692c-3.9393,0-6.67668-1.04417-8.21514-3.13852-1.53846-2.09135-2.67728-4.73708-3.41346-7.9387l-1.10877-15.69261c-4.30889,4.3104-9.07752,8.33984-14.30889,12.09285-5.23137,3.75601-10.86238,7.01472-16.89002,9.78515-6.03365,2.76893-12.43389,4.92037-19.20072,6.46034-6.76983,1.53846-13.72596,2.30769-20.86238,2.30769-11.07572,0-21.7548-1.44681-32.03124-4.33744-10.27644-2.89062-19.90985-6.95162-28.89122-12.18449-8.98437-5.22987-17.13942-11.53846-24.46213-18.92277-7.32271-7.38582-13.59976-15.56941-18.83113-24.55528-5.23137-8.98137-9.29387-18.64483-12.18449-28.98437-2.89363-10.33804-4.33894-21.10577-4.33894-32.30769,0-11.19741,1.44531-21.96814,4.33894-32.30769,2.89062-10.33804,6.95312-19.99849,12.18449-28.98437,5.23137-8.98287,11.50841-17.13792,18.83113-24.46063,7.32271-7.32121,15.47776-13.59825,24.46213-18.83113,8.98137-5.22987,18.61478-9.29237,28.89122-12.18449,10.27644-2.89062,20.95552-4.33894,32.03124-4.33894,7.8756,0,15.38461.83083,22.52403,2.49249,7.13642,1.66166,13.8131,4.0009,20.03004,7.01472,6.21394,3.01833,11.96815,6.64663,17.26262,10.89243,5.28846,4.24729,10.09014,8.89423,14.39904,13.9393l2.58413-19.7536c.61599-2.21605,1.20192-4.03095,1.75481-5.44621.55288-1.41376,1.22897-2.55409,2.03125-3.41647.79928-.85937,1.8149-1.44531,3.04687-1.7533,1.22897-.30649,2.76743-.46124,4.61538-.46124h18.46153c1.96514,0,3.9363.1848,5.90745.55288,1.96514.36959,3.753.95553,5.35156,1.75481,1.59856.80228,2.86358,1.90955,3.78606,3.32332.92248,1.41526,1.38522,3.17007,1.38522,5.26142v213.23013ZM1696.13879,1151.20049c0,9.84826,1.72175,19.17217,5.16827,27.97025,3.44651,8.80108,8.24519,16.52193,14.40204,23.16857,6.15084,6.64663,13.38341,11.90805,21.6917,15.78425,8.30829,3.8777,17.38281,5.8158,27.22956,5.8158,9.96995,0,19.29387-1.9381,27.97175-5.8158,8.67488-3.8762,16.21394-9.13762,22.61418-15.78425,6.39723-6.64663,11.44531-14.36749,15.13822-23.16857,3.69291-8.79808,5.53786-18.12199,5.53786-27.97025,0-9.72055-1.84495-18.98287-5.53786-27.78395-3.69291-8.79808-8.74098-16.52343-15.13822-23.17007-6.40024-6.64513-13.9393-11.9366-22.61418-15.8759-8.67788-3.9378-18.0018-5.90745-27.97175-5.90745-9.84675,0-18.92127,1.96965-27.22956,5.90745-8.30829,3.9393-15.54086,9.23077-21.6917,15.8759-6.15685,6.64663-10.95553,14.37199-14.40204,23.17007-3.44651,8.80108-5.16827,18.0634-5.16827,27.78395Z"/>
    <path class="cls-1" d="M1936.50533,975.63111c0-3.19862.85937-5.84285,2.58413-7.9372,1.72175-2.09135,4.36598-3.13852,7.9387-3.13852h32.30769c2.46094,0,4.76863,1.04718,6.92308,3.13852,2.15144,2.09435,3.23017,4.73858,3.23017,7.9372v281.908c0,3.69291-1.01562,6.46184-3.04687,8.30829s-4.77163,2.76893-8.21514,2.76893h-30.82932c-3.94231,0-6.73978-.92248-8.40144-2.76893s-2.49099-4.61538-2.49099-8.30829v-281.908Z"/>
  </g>
  <path class="cls-1" d="M1045.65064,1370.0759c3.13702-1.53696,7.04327-2.30769,11.72175-2.30769h18.64633c3.56821,0,6.21394,1.17488,7.9387,3.52314,1.72175,2.34826,2.89062,4.94441,3.50961,7.78546l2.03125,17.79447c2.83053-4.19922,6.08774-8.24369,9.78365-12.13491,3.6899-3.89123,8.08894-7.31821,13.19711-10.28395s11.07572-5.34255,17.90865-7.13341,14.80168-2.6893,23.90625-2.6893c8.61779,0,16.43029.83383,23.44951,2.5015,7.01322,1.66767,13.35336,4.13912,19.01442,7.41286,5.66106,3.27524,10.76923,7.28966,15.32452,12.04327,4.54928,4.75811,8.67788,10.22386,12.36779,16.40024,2.95072-5.80378,6.95312-11.11779,12.0012-15.93449,5.04207-4.81821,10.85937-8.92277,17.44591-12.32121,6.58053-3.39693,13.8161-6.02314,21.6887-7.8741,7.8786-1.85246,16.0637-2.78095,24.55528-2.78095,14.51923,0,27.28966,2.64724,38.31129,7.9387,11.00961,5.29297,20.21033,12.55258,27.59615,21.78335,7.38582,9.23077,12.95072,20.003,16.70673,32.30769,3.75601,12.30919,5.63101,25.47776,5.63101,39.50871v123.1385c0,4.42909-1.04567,7.78546-3.13702,10.06009-2.09135,2.28065-5.10817,3.41647-9.04447,3.41647h-28.0649c-4.92187,0-8.21514-.91947-9.8738-2.76743-1.66466-1.84195-2.49399-5.10216-2.49399-9.77464v-123.93778c0-6.51592-.91947-12.84856-2.77043-18.99789-1.84495-6.14784-4.70553-11.58804-8.58173-16.32061-3.8762-4.73407-8.74399-8.54417-14.58533-11.43479-5.84735-2.89062-12.83053-4.33594-20.95552-4.33594-6.76683,0-13.04687,1.20042-18.82812,3.59675-5.78726,2.40084-10.77524,5.84135-14.95793,10.33053-4.18269,4.48768-7.47596,9.89633-9.8738,16.22896-2.39784,6.33113-3.59976,13.36989-3.59976,21.11778v123.0168c0,8.85216-4.0024,13.27824-12.0012,13.27824h-28.24519c-4.92187,0-8.18509-.91947-9.78365-2.76743-1.60457-1.84195-2.40385-5.10216-2.40385-9.77464v-123.75298c0-6.39273-.88942-12.63521-2.67428-18.72145-1.78486-6.08624-4.55529-11.52644-8.30529-16.32061-3.75601-4.79417-8.58774-8.66887-14.49519-11.61959s-12.92067-4.42758-21.04567-4.42758c-5.66106,0-11.32211,1.07572-16.98317,3.22716-5.66106,2.15294-10.79928,5.25841-15.41466,9.3149-4.61538,4.05799-8.40144,9.03696-11.35817,14.9399-2.95072,5.90144-4.48918,12.60216-4.61538,20.10216v128.91975c0,3.19711-1.04567,5.80829-3.13702,7.83654-2.09135,2.03125-4.74159,3.04387-7.9387,3.04387h-30.46123c-4.061,0-7.04627-.95252-8.95282-2.86058-1.90955-1.90805-2.86208-4.64543-2.86208-8.21514v-212.49395c0-4.18269,1.57001-7.04327,4.70853-8.58473Z"/>
  <path class="cls-1" d="M1520.20133,1665.98329c-1.10877,2.70733-2.52404,4.70853-4.24579,6.0006-1.72476,1.29207-4.0024,1.9381-6.82993,1.9381h-34.70853c-3.44651,0-5.81731-.58293-7.10937-1.7518-1.29207-1.17187-1.9381-2.61719-1.9381-4.33894,0-.86238.15325-2.09435.46274-3.69291.30649-1.60156.58293-2.52404.82933-2.77043l32.49398-82.89061-82.33772-200.67754c0-.24489-.06611-.42969-.1863-.55288v-1.66166c-.61599-1.35367-.92248-2.89062-.92248-4.61538,0-2.09135.73918-3.753,2.21454-4.98497,1.47837-1.22897,3.753-1.84645,6.82993-1.84645h33.41646c5.29147,0,8.92127,2.58413,10.89243,7.7539l3.32332,8.67638c2.46094,6.89453,5.22836,14.61688,8.30829,23.17007,3.07392,8.55619,6.27704,17.38581,9.60036,26.49188,3.32332,9.11058,6.67368,18.24819,10.06009,27.41586,3.38341,9.17067,6.58353,17.78696,9.60036,25.84585,3.01382,8.0619,5.7512,15.32301,8.21514,21.78485,2.46094,6.46184,4.43209,11.53846,5.90745,15.23137l54.64542-148.61626c1.10877-2.70583,2.52103-4.70703,4.2488-5.9991,1.72175-1.29357,3.99639-1.9396,6.82993-1.9396h34.70853c3.44351,0,5.8143.58594,7.10637,1.75481,1.29207,1.17037,1.9381,2.61568,1.9381,4.33744,0,.86238-.15625,2.09435-.46274,3.69291-.30649,1.60156-.58293,2.52404-.82933,2.76893l-112.06128,289.4756Z"/>
  <g>
    <path class="cls-1" d="M1065.68068,1897.90557c2.58413,4.0625,5.84435,7.57211,9.78515,10.52584,3.9363,2.95373,7.96875,5.38461,12.09134,7.28966,4.1226,1.91106,8.05889,3.29627,11.8149,4.15565,3.75601.86238,6.73678,1.29207,8.95433,1.29207,3.44351,0,7.50601-.36959,12.1875-1.10877,4.67548-.73618,9.07452-2.05829,13.19711-3.96935,4.1226-1.90505,7.63221-4.48918,10.52283-7.7524,2.89062-3.26022,4.33894-7.41286,4.33894-12.46094,0-4.92187-1.14183-8.92428-3.41346-12.0012-2.27764-3.07392-5.35457-5.63101-9.23077-7.66226s-8.3113-3.71995-13.29327-5.07512c-4.98798-1.35517-10.24639-2.83053-15.78726-4.43209-12.92067-3.44351-23.93629-7.59916-33.04386-12.46094-9.11058-4.86178-16.58654-10.42969-22.43089-16.70673-5.84735-6.27704-10.1247-13.17007-12.83053-20.67908-2.70883-7.50601-4.0625-15.6911-4.0625-24.55228,0-9.96995,1.96815-19.07752,5.90745-27.32271,3.9378-8.24519,9.47716-15.32452,16.61658-21.23197,7.13642-5.90745,15.72115-10.48978,25.7527-13.753,10.02854-3.26022,21.14032-4.89183,33.32181-4.89183,8.61779,0,16.31009.76923,23.07692,2.30769,6.76683,1.53846,13.04687,3.84615,18.83413,6.92308,5.78125,3.07692,11.22596,6.95312,16.33413,11.6286,5.10817,4.67848,10.3125,10.15625,15.60096,16.43329,1.85096,2.21454,2.77043,4.36899,2.77043,6.46034,0,2.21454-1.23197,4.30889-3.6899,6.27704-1.84495,1.47536-4.03245,3.32332-6.55649,5.53786s-5.01803,4.36899-7.47596,6.46034c-2.46394,2.09435-4.80168,3.87921-7.01322,5.35457-2.21755,1.47837-4.0625,2.21755-5.54086,2.21755-2.71034,0-5.35457-1.59856-7.9387-4.80168-2.71034-3.20012-5.41466-6.0006-8.125-8.39844-2.70433-2.40084-5.53485-4.36899-8.49158-5.91046-2.95072-1.53546-6.15384-2.70433-9.59735-3.50661-3.44952-.79928-7.19952-1.19892-11.26202-1.19892-3.32332,0-6.80288.49279-10.43269,1.47536-3.62981.98858-6.95312,2.46394-9.96995,4.43209-3.01683,1.97115-5.53485,4.33894-7.5661,7.10637-2.03125,2.77043-3.04687,5.88041-3.04687,9.32392,0,3.9393,1.25601,7.29267,3.78005,10.06009,2.51803,2.77043,5.70913,5.17127,9.57933,7.20252,3.87019,2.02824,8.08293,3.72296,12.6262,5.07512,4.54928,1.35517,8.78606,2.58413,12.72235,3.69291,11.30408,3.20312,21.6887,6.89303,31.14783,11.07572,9.46514,4.1857,17.60817,9.26382,24.42307,15.23137,6.82091,5.97055,12.13341,12.98678,15.94351,21.04567,3.8101,8.0649,5.71514,17.51202,5.71514,28.33834,0,11.44832-2.27163,21.69471-6.80889,30.73918-4.53726,9.04747-10.82332,16.70973-18.85817,22.98377-8.03485,6.27704-17.54807,11.07872-28.54567,14.40204s-22.95673,4.98497-35.8774,4.98497c-7.7524,0-15.63101-.83233-23.6298-2.49399-8.00481-1.66166-15.66556-4.24579-22.98677-7.7524-7.32422-3.50961-14.09405-7.9988-20.30799-13.47656-6.21695-5.47476-11.41676-11.96815-15.59946-19.47716-1.84645-3.07692-2.77043-5.84435-2.77043-8.30829,0-1.59856.39814-2.98377,1.20042-4.15264.79928-1.16887,1.875-2.30769,3.23167-3.41647l20.67608-15.8774c1.84645-1.10877,3.50811-1.66166,4.98497-1.66166,1.72175,0,3.25871.58594,4.61538,1.75481,1.35216,1.17187,2.82903,2.74038,4.43059,4.70553Z"/>
    <path class="cls-1" d="M1478.47958,1953.10688c0,2.21454-.46274,4.03245-1.38522,5.44772s-2.1244,2.52404-3.59976,3.32031c-1.47837.80228-3.17007,1.35817-5.07812,1.66166-1.90805.3095-3.90925.46274-6.0006.46274h-23.07692c-3.9393,0-6.67668-1.04567-8.21514-3.13702s-2.67728-4.73858-3.41346-7.9387l-1.10877-15.69411c-4.30889,4.30889-9.07752,8.34134-14.30889,12.09435s-10.86238,7.01322-16.89002,9.78365c-6.03365,2.76743-12.43389,4.92187-19.20072,6.46034-6.76983,1.53846-13.72596,2.30769-20.86238,2.30769-11.07572,0-21.7548-1.44832-32.03124-4.33894s-19.90985-6.95012-28.89122-12.18449c-8.98437-5.22836-17.13942-11.53846-24.46213-18.92127-7.32271-7.38582-13.59976-15.56791-18.83113-24.55528-5.23137-8.98137-9.29387-18.64483-12.18449-28.98437-2.89363-10.33654-4.33894-21.10577-4.33894-32.30769,0-11.19892,1.44531-21.96814,4.33894-32.30769,2.89062-10.33654,6.95312-20,12.18449-28.98437,5.23137-8.98137,11.50841-17.13641,18.83113-24.46213,7.32271-7.31971,15.47776-13.59675,24.46213-18.83113,8.98137-5.22836,18.61478-9.29086,28.89122-12.18449,10.27644-2.89062,20.95552-4.33594,32.03124-4.33594,7.8756,0,15.38461.82933,22.52403,2.49099,7.13642,1.66166,13.8131,3.9994,20.03004,7.01622,6.21394,3.01683,11.96815,6.64663,17.26262,10.89243,5.28846,4.24579,10.09014,8.89122,14.39904,13.9363l2.58413-19.7536c.61599-2.21454,1.20192-4.02945,1.75481-5.44471s1.22897-2.55409,2.03125-3.41647c.79928-.85937,1.8149-1.44531,3.04687-1.75481,1.22897-.30349,2.76743-.45974,4.61538-.45974h18.46153c1.96514,0,3.9363.18329,5.90745.55288,1.96514.36959,3.753.95553,5.35156,1.75481,1.59856.80228,2.86358,1.90805,3.78606,3.32332s1.38522,3.17007,1.38522,5.26142v213.23013ZM1286.47842,1846.58347c0,9.84976,1.72175,19.17067,5.16827,27.96874,3.44651,8.80108,8.24519,16.52343,14.40204,23.17007,6.15084,6.64663,13.38341,11.90805,21.6917,15.78425,8.30829,3.8762,17.38281,5.81731,27.22956,5.81731,9.96995,0,19.29387-1.94111,27.97175-5.81731,8.67488-3.8762,16.21394-9.13762,22.61418-15.78425,6.39723-6.64663,11.44531-14.36899,15.13822-23.17007,3.69291-8.79808,5.53786-18.11899,5.53786-27.96874,0-9.72055-1.84495-18.98437-5.53786-27.78545-3.69291-8.79808-8.74098-16.52043-15.13822-23.16706-6.40024-6.64663-13.9393-11.9381-22.61418-15.8774-8.67788-3.9393-18.0018-5.90745-27.97175-5.90745-9.84675,0-18.92127,1.96815-27.22956,5.90745s-15.54086,9.23077-21.6917,15.8774c-6.15685,6.64663-10.95553,14.36899-14.40204,23.16706-3.44651,8.80108-5.16827,18.0649-5.16827,27.78545Z"/>
    <path class="cls-1" d="M1531.73678,1731.84491c3.13702-1.53546,7.04327-2.30769,11.72175-2.30769h18.64783c3.56671,0,6.21094,1.17488,7.9387,3.52163,1.72175,2.34976,2.88762,4.94591,3.50661,7.78546l2.03125,17.79747c2.83053-4.20072,6.09074-8.24519,9.78365-12.13642,3.69291-3.89123,8.09195-7.31971,13.20012-10.28245,5.10517-2.96574,11.07572-5.34255,17.90865-7.13642,6.82993-1.79087,14.79867-2.6863,23.90625-2.6863,8.61478,0,16.43029.83233,23.44651,2.5s13.35336,4.14062,19.01442,7.41286c5.66106,3.27524,10.76923,7.28966,15.32452,12.04327,4.55228,4.75661,8.67788,10.22235,12.36779,16.40024,2.95373-5.80529,6.95312-11.11779,12.0012-15.93449,5.04507-4.81671,10.85937-8.92127,17.44591-12.31971,6.58353-3.39844,13.8161-6.02464,21.6917-7.8756,7.8756-1.85096,16.0637-2.78245,24.55528-2.78245,14.51923,0,27.28966,2.65024,38.30829,7.9387,11.01262,5.29447,20.21334,12.55408,27.59915,21.78485,7.38281,9.23077,12.95072,20.003,16.70673,32.30769,3.753,12.31069,5.63101,25.47776,5.63101,39.5072v123.14c0,4.42909-1.04567,7.78546-3.13702,10.06009-2.09435,2.28065-5.11118,3.41647-9.04747,3.41647h-28.06189c-4.92488,0-8.21514-.91947-9.8768-2.76743-1.66166-1.84195-2.49099-5.10216-2.49099-9.77464v-123.93627c0-6.51743-.92248-12.84856-2.77043-18.9994-1.84495-6.14784-4.70853-11.58654-8.58473-16.32211-3.8762-4.73257-8.74098-8.54267-14.58533-11.43329-5.84735-2.89062-12.83053-4.33594-20.95252-4.33594-6.76983,0-13.04687,1.19892-18.83113,3.59675-5.78726,2.40084-10.77223,5.84135-14.95492,10.33053-4.1857,4.48918-7.47596,9.89783-9.8768,16.22896-2.39784,6.33113-3.59976,13.36839-3.59976,21.11778v123.0168c0,8.85216-3.9994,13.27824-11.99819,13.27824h-28.24819c-4.92187,0-8.18509-.91947-9.78365-2.76743-1.60156-1.84195-2.40084-5.10216-2.40084-9.77464v-123.75298c0-6.39122-.89243-12.63521-2.67728-18.71995-1.78486-6.08774-4.55228-11.52944-8.30529-16.32211-3.75601-4.79567-8.58473-8.66887-14.49218-11.61959-5.90745-2.95072-12.92368-4.42909-21.04867-4.42909-5.66106,0-11.32211,1.07572-16.98317,3.23017-5.66106,2.15144-10.79928,5.25841-15.41466,9.3119-4.61538,4.05949-8.40144,9.03846-11.35517,14.9399-2.95373,5.90144-4.49219,12.60517-4.61538,20.10516v128.91824c0,3.19711-1.04567,5.80829-3.13702,7.83654-2.09435,2.03125-4.74159,3.04387-7.9387,3.04387h-30.46273c-4.05949,0-7.04627-.95252-8.95433-2.86058s-2.86058-4.64543-2.86058-8.21514v-212.49395c0-4.18269,1.56851-7.04327,4.70853-8.58473Z"/>
    <path class="cls-1" d="M1929.4861,1730.64599c1.59856-.73918,3.23017-1.20192,4.89183-1.38522s3.29026-.27644,4.89183-.27644h18.64783c3.6899,0,6.30409,1.04567,7.84555,3.13702,1.53846,2.09435,2.61418,4.74159,3.23017,7.9387l3.8762,22.52403c4.30889-4.92187,8.89122-9.60036,13.75601-14.02944,4.85877-4.43209,10.24339-8.36839,16.15384-11.81791,5.90745-3.44351,12.42788-6.18389,19.5673-8.21514,7.13642-2.03125,15.13822-3.04387,23.99939-3.04387,11.19892,0,21.878,1.44531,32.03124,4.33594,10.15324,2.89363,19.6304,6.95613,28.43148,12.18449,8.79808,5.23437,16.76682,11.51142,23.90625,18.83113,7.13942,7.32572,13.26322,15.48077,18.37139,24.46213,5.10517,8.98437,9.04447,18.64783,11.8149,28.98437,2.77043,10.33954,4.15264,21.10877,4.15264,32.30769,0,11.20192-1.38221,21.97115-4.15264,32.30769-2.77043,10.33954-6.70973,20.003-11.8149,28.98437-5.10817,8.98738-11.23197,17.16947-18.37139,24.55528-7.13942,7.38281-15.10817,13.69291-23.90625,18.92127-8.80108,5.23437-18.30829,9.29387-28.52163,12.18449-10.21935,2.89062-20.86238,4.33894-31.9411,4.33894-8.0018,0-15.35456-.86238-22.06129-2.58413-6.70973-1.72175-12.92067-4.08954-18.64483-7.10637-5.72416-3.01683-11.01562-6.52344-15.8774-10.52283-4.86478-3.9994-9.44711-8.27824-13.753-12.83353v89.90984c0,2.95373-.92248,5.47476-2.77043,7.56911-1.84495,2.09135-4.61538,3.13702-8.30829,3.13702h-30.64603c-2.58413,0-5.13822-.95252-7.65925-2.86058-2.52404-1.91106-3.78606-4.52223-3.78606-7.84555v-284.86172c0-2.58413.58293-4.61538,1.75481-6.09375,1.16887-1.47536,2.79748-2.52103,4.89183-3.13702ZM2112.43979,1846.58347c0-9.72055-1.75481-18.98437-5.26142-27.78545-3.50661-8.79808-8.30829-16.49038-14.39904-23.07692-6.09375-6.58053-13.32632-11.8149-21.69471-15.6911-8.37139-3.8762-17.41586-5.8143-27.13641-5.8143-9.72356,0-18.86418,1.90805-27.41586,5.72115-8.55769,3.81611-16.06069,8.95433-22.52403,15.41767-6.46034,6.46034-11.63161,13.9994-15.50781,22.61418s-5.8774,17.72235-6.0006,27.32271v1.29207c0,9.84976,1.875,19.20072,5.63101,28.06189,3.753,8.86118,8.86118,16.61658,15.32452,23.26021,6.46034,6.64663,14.02944,11.9411,22.70733,15.8774,8.67788,3.94231,17.93569,5.90745,27.78545,5.90745,9.72055,0,18.76502-1.96514,27.13641-5.90745,8.36839-3.9363,15.60096-9.23077,21.69471-15.8774,6.09074-6.64363,10.89243-14.39904,14.39904-23.26021s5.26142-18.21214,5.26142-28.06189Z"/>
    <path class="cls-1" d="M2207.5179,1671.01559c0-3.20012.85937-5.84435,2.58413-7.9387,1.72175-2.09135,4.36598-3.14002,7.9387-3.14002h32.30769c2.46094,0,4.76863,1.04868,6.92308,3.14002,2.15144,2.09435,3.23017,4.73858,3.23017,7.9387v281.908c0,3.6899-1.01562,6.46034-3.04687,8.30529-2.03125,1.84796-4.77163,2.77043-8.21514,2.77043h-30.82932c-3.94231,0-6.73978-.92248-8.40144-2.77043-1.66166-1.84495-2.49099-4.61538-2.49099-8.30529v-281.908Z"/>
    <path class="cls-1" d="M2504.00522,1938.15196c-10.82932,9.23077-22.67728,16.49639-35.53785,21.78485-12.86358,5.29147-26.98617,7.9387-42.36778,7.9387-16.61658,0-32.37079-3.13702-47.26261-9.41406-14.89182-6.27704-27.9417-14.89182-39.13761-25.84735-11.20192-10.95252-20.09615-23.78305-26.67668-38.49158-6.58654-14.70553-9.8768-30.55288-9.8768-47.53905,0-10.95252,1.35216-21.53545,4.05949-31.7548,2.70733-10.21334,6.55348-19.78065,11.53846-28.70492,4.98497-8.92428,11.04567-17.10637,18.18509-24.55528,7.13642-7.44591,15.10817-13.8131,23.90925-19.10757,8.79808-5.29147,18.33533-9.38401,28.61478-12.27764,10.27344-2.89062,21.13882-4.33894,32.58413-4.33894,9.35096,0,18.58173,1.14183,27.6923,3.41647,9.10757,2.27764,17.7524,5.51082,25.93749,9.69351,8.18509,4.1857,15.84735,9.26082,22.98677,15.22836,7.13642,5.97356,13.41346,12.71033,18.82812,20.21634,7.38582,10.33954,12.80048,21.47836,16.24699,33.41646,3.44351,11.9381,5.16827,25.17127,5.16827,39.6905,0,3.57272-.15325,6.55348-.45974,8.95433-.3095,2.40084-1.07873,4.33894-2.30769,5.81731-1.23197,1.47536-3.07692,2.55409-5.53786,3.23017-2.46394.67608-5.90745,1.01562-10.33954,1.01562h-163.75297c1.59856,8.86118,4.64243,16.70673,9.13762,23.53665,4.49219,6.83293,9.8137,12.61719,15.97055,17.35577,6.15084,4.73858,12.85757,8.30529,20.12319,10.70613,7.25961,2.40084,14.51923,3.59976,21.78185,3.59976,5.54086,0,10.86238-.55288,15.97055-1.66166,5.10517-1.10577,9.8768-2.58413,14.30889-4.42909,4.42909-1.84796,8.51863-3.96935,12.27464-6.37019,3.753-2.40084,7.04627-4.89183,9.8768-7.47596,0-.1232.0631-.1863.1863-.1863,1.47536-1.35216,2.89062-2.42788,4.24579-3.23017,1.35216-.79928,2.77043-1.19892,4.24579-1.19892,1.10877,0,2.36779.36959,3.78606,1.10577,1.41226.73918,2.79748,1.97115,4.15264,3.69291,3.32332,4.0625,6.15384,7.44892,8.49158,10.15324,2.33774,2.71034,4.24579,4.98497,5.72416,6.83293,1.47536,1.84495,2.55409,3.44651,3.23017,4.79868.67608,1.35517,1.01562,2.71034,1.01562,4.0625,0,3.44651-2.34074,6.89303-7.01622,10.33654ZM2422.03709,1771.63156c-7.26262,0-14.33894,1.32212-21.23197,3.96635-6.89303,2.65024-13.20012,6.25-18.92127,10.80228-5.72416,4.55529-10.70913,9.90685-14.95492,16.06069-4.24579,6.15685-7.35577,12.80048-9.32392,19.9399h130.70911c-1.97115-7.50601-4.95493-14.36899-8.95433-20.58593-3.9994-6.21394-8.83113-11.56851-14.49218-16.06069-5.66106-4.49219-12.1244-7.96875-19.38401-10.43269-7.26262-2.46094-15.07812-3.6899-23.44651-3.6899Z"/>
  </g>
  <path class="cls-1" d="M906.12211,1968.98729h-83.53601c-12.61825,0-22.84736-10.22911-22.84736-22.84736l-83.4254-368.66965c-5.7584-25.44724-2.91313-52.0858,8.09009-75.74272l27.59371-59.32648c11.00322-23.65693,13.84849-50.29548,8.09009-75.74272l-83.4254-368.66965c0-12.61825,10.22911-22.84736,22.84736-22.84736h83.53601c12.61825,0,22.84736,10.22911,22.84736,22.84736l83.4254,368.66965c5.7584,25.44724,2.91313,52.0858-8.09009,75.74272l-27.59371,59.32648c-11.00322,23.65693-13.84849,50.29548-8.09009,75.74272l83.4254,368.66965c0,12.61825-10.22911,22.84736-22.84736,22.84736Z"/>
  <path class="cls-1" d="M724.58368,1968.98729h-83.53601c-12.61825,0-22.84736-10.22911-22.84736-22.84736l-83.4254-368.66965c-5.7584-25.44724-2.91313-52.0858,8.09009-75.74272l27.59371-59.32648c11.00322-23.65693,13.84849-50.29548,8.09009-75.74272l-83.4254-368.66965c0-12.61825,10.22911-22.84736,22.84736-22.84736h83.53601c12.61825,0,22.84736,10.22911,22.84736,22.84736l83.4254,368.66965c5.7584,25.44724,2.91313,52.0858-8.09009,75.74272l-27.59371,59.32648c-11.00322,23.65693-13.84849,50.29548-8.09009,75.74272l83.4254,368.66965c0,12.61825-10.22911,22.84736-22.84736,22.84736Z"/>
  <path class="cls-1" d="M543.04526,1968.98729h-83.53601c-12.61825,0-22.84736-10.22911-22.84736-22.84736l-83.4254-368.66965c-5.7584-25.44724-2.91313-52.0858,8.09009-75.74272l27.59371-59.32648c11.00322-23.65693,13.84849-50.29548,8.09009-75.74272l-83.4254-368.66965c0-12.61825,10.22911-22.84736,22.84736-22.84736h83.53601c12.61825,0,22.84736,10.22911,22.84736,22.84736l83.4254,368.66965c5.7584,25.44724,2.91313,52.0858-8.09009,75.74272l-27.59371,59.32648c-11.00322,23.65693-13.84849,50.29548-8.09009,75.74272l83.4254,368.66965c0,12.61825-10.22911,22.84736-22.84736,22.84736Z"/>
  <rect class="cls-1" x="313.58496" y="1818.21807" width="70.76922" height="150.7692" rx="35.38457" ry="35.38457"/>
  <rect class="cls-2" x="858.20024" y="975.14131" width="70.76922" height="150.7692" rx="35.38457" ry="35.38457"/>
</svg>