<?xml version="1.0" encoding="UTF-8"?>
<svg id="Calque_1" data-name="Calque 1" xmlns="http://www.w3.org/2000/svg" viewBox="0 0 3000 3000">
  <path d="M766.82543,1590.25437c4.56138,7.16826,10.31613,13.36059,17.27223,18.57435,6.94814,5.21376,14.06601,9.50729,21.343,12.87263,7.27699,3.37064,14.22513,5.81575,20.85503,7.33268,6.62991,1.52223,11.8914,2.28069,15.8057,2.28069,6.0783,0,13.24921-.65238,21.51272-1.9545,8.25291-1.30477,16.01785-3.63584,23.29484-7.00649,7.27699-3.36534,13.47197-7.92937,18.57435-13.68678,5.10238-5.75476,7.65887-13.08744,7.65887-21.99803,0-8.68518-2.01549-15.74735-6.02526-21.18123-4.02038-5.42857-9.45159-9.93956-16.29366-13.52236-6.84206-3.58545-14.67066-6.56891-23.46457-8.96363-8.80452-2.38677-18.08639-4.99365-27.86682-7.82064-22.80688-6.0783-42.25107-13.41098-58.32727-21.99538-16.0815-8.5791-29.27767-18.41258-39.5938-29.49248-10.32144-11.0799-17.87158-23.24445-22.64776-36.49631-4.78149-13.24921-7.17091-27.69975-7.17091-43.34103,0-17.59842,3.47407-33.67197,10.42752-48.23124,6.95079-14.55132,16.72858-27.04737,29.33071-37.47488,12.59682-10.42752,27.75014-18.51866,45.45729-24.27607,17.70185-5.75476,37.31577-8.63744,58.81788-8.63744,15.21166,0,28.78971,1.36046,40.73415,4.07341,11.94444,2.72091,23.02964,6.79433,33.245,12.22024,10.20475,5.43387,19.81546,12.27594,28.83214,20.53149,9.01667,8.25821,18.20307,17.92196,27.53798,29.00186,3.26722,3.91164,4.89022,7.71456,4.89022,11.40609,0,3.90899-2.17461,7.60583-6.51322,11.0799-3.25661,2.60688-7.11787,5.86614-11.57317,9.77513-4.4553,3.91164-8.85756,7.71456-13.19617,11.40609-4.34922,3.69684-8.47567,6.84206-12.37936,9.44894-3.9143,2.60953-7.17091,3.91164-9.78044,3.91164-4.78414,0-9.45159-2.82169-14.01297-8.47302-4.78414-5.64603-9.55767-10.58929-14.34181-14.82712-4.77353-4.23518-9.76983-7.70926-14.98889-10.42752-5.20845-2.71296-10.86244-4.77618-16.94074-6.19233-6.08891-1.41084-12.70821-2.11627-19.87911-2.11627-5.86614,0-12.00809.86984-18.41523,2.60688-6.40714,1.73969-12.27328,4.34657-17.59842,7.82064-5.32514,3.47672-9.76983,7.65622-13.35528,12.54644-3.58545,4.88757-5.37818,10.37713-5.37818,16.45543,0,6.9561,2.21704,12.87263,6.67234,17.76019,4.44469,4.88757,10.07746,9.1254,16.90891,12.70821,6.83146,3.58545,14.26756,6.57422,22.28709,8.96098,8.03014,2.39472,15.50868,4.56403,22.45682,6.51852,19.95337,5.65133,38.28373,12.16986,54.98049,19.55292,16.70736,7.38837,31.081,16.34935,43.1103,26.88295,12.03991,10.54155,21.41725,22.92357,28.14263,37.15134,6.72538,14.23043,10.08807,30.90597,10.08807,50.02132,0,20.20265-4.00977,38.28904-12.01869,54.2565-8.00893,15.97012-19.10474,29.49248-33.28744,40.57238-14.1827,11.0799-30.97492,19.55292-50.38729,25.41906-19.41237,5.86349-40.52199,8.79656-63.32887,8.79656-13.68413,0-27.59102-1.46654-41.71007-4.39961-14.12966-2.93042-27.65201-7.49445-40.57503-13.68413-12.92832-6.19233-24.87806-14.1217-35.84658-23.79076-10.97382-9.66375-20.15226-21.12553-27.53533-34.38004-3.25926-5.42592-4.89022-10.31348-4.89022-14.6627,0-2.82169.70277-5.26415,2.11892-7.33268,1.41084-2.06323,3.30965-4.07341,5.70437-6.02791l36.49631-28.02594c3.25926-1.9545,6.19233-2.93307,8.79921-2.93307,3.03915,0,5.75211,1.03427,8.14683,3.09749,2.38677,2.06588,4.99365,4.83718,7.82064,8.3086Z"/>
  <path d="M1070.22991,1298.21402c5.5373-2.71296,12.4324-4.07341,20.69061-4.07341h32.91351c6.29841,0,10.96852,2.07383,14.01297,6.21885,3.03915,4.14502,5.10238,8.72761,6.19498,13.74247l3.58545,31.40985c4.9963-7.41224,10.74575-14.55132,17.26958-21.4199,6.51322-6.86858,14.27817-12.91771,23.29484-18.15268,9.01667-5.23497,19.55027-9.43038,31.61139-12.59152,12.06113-3.16114,26.12714-4.74701,42.19803-4.74701,15.21166,0,29.00186,1.47184,41.39183,4.41552,12.37936,2.94368,23.57064,7.30616,33.56324,13.08478,9.9926,5.78128,19.00927,12.86732,27.05002,21.25813,8.03014,8.39877,15.31774,18.04661,21.83096,28.94882,5.20845-10.24453,12.27328-19.62452,21.18388-28.12672,8.89999-8.50484,19.16839-15.75001,30.79459-21.74875,11.6156-5.99609,24.38745-10.63172,38.28373-13.89894,13.90689-3.26987,28.35478-4.90878,43.34368-4.90878,25.62857,0,48.17025,4.67276,67.62505,14.01297,19.43358,9.34286,35.6742,22.15715,48.71125,38.45081,13.03705,16.29366,22.85992,35.30823,29.48982,57.02781,6.62991,21.72753,9.93956,44.97198,9.93956,69.73866v217.35751c0,7.81799-1.84577,13.74247-5.5373,17.75754-3.69153,4.02568-9.01667,6.03056-15.96482,6.03056h-49.53866c-8.68783,0-14.50093-1.623-17.4287-4.88492-2.93837-3.25131-4.40226-9.00607-4.40226-17.25367v-218.76836c0-11.50156-1.623-22.67958-4.89022-33.53407-3.25661-10.85183-8.30595-20.45459-15.14801-28.80827-6.84206-8.35633-15.43442-15.08171-25.74525-20.18409-10.32144-5.10238-22.64776-7.65356-36.98958-7.65356-11.94444,0-23.02964,2.11892-33.2344,6.3488-10.21536,4.23784-19.01988,10.31083-26.40294,18.2349-7.38306,7.92141-13.19617,17.46848-17.4287,28.6465-4.23253,11.17537-6.3541,23.59982-6.3541,37.27599v217.1427c0,15.62536-7.06483,23.43805-21.18388,23.43805h-49.8569c-8.68783,0-14.44789-1.623-17.26958-4.88492-2.8323-3.25131-4.24314-9.00607-4.24314-17.25367v-218.44216c0-11.2841-1.56996-22.30301-4.72049-33.04611-3.15053-10.7431-8.04075-20.34586-14.66005-28.80827-6.62991-8.46241-15.15862-15.30182-25.58614-20.51028-10.42752-5.20845-22.80688-7.81533-37.14869-7.81533-9.9926,0-19.98519,1.89881-29.97779,5.69642-9.9926,3.80026-19.06231,9.28187-27.20914,16.44217-8.14683,7.16295-14.82978,15.95156-20.04884,26.37112-5.20845,10.41691-7.92406,22.24466-8.14683,35.48326v227.56226c0,5.64338-1.84577,10.25249-5.5373,13.83264-3.69153,3.58545-8.36959,5.37288-14.01297,5.37288h-53.76854c-7.16826,0-12.4377-1.68134-15.80305-5.04934-3.37064-3.36799-5.05199-8.19987-5.05199-14.50093v-375.08299c0-7.38306,2.7713-12.4324,8.31125-15.15331Z"/>
  <path d="M1799.57912,1590.92772c4.56138,7.17091,10.31613,13.36589,17.27223,18.57965,6.94814,5.21376,14.06601,9.50463,21.343,12.86732,7.27699,3.3733,14.22513,5.81841,20.85503,7.33533,6.62991,1.52223,11.8914,2.28069,15.8057,2.28069,6.0783,0,13.24921-.65238,21.51272-1.95715,8.25291-1.29946,16.01785-3.63319,23.29484-7.00649,7.27699-3.36269,13.47197-7.92406,18.57435-13.68413,5.10238-5.75476,7.65887-13.08478,7.65887-21.99538,0-8.68783-2.01549-15.75266-6.02526-21.18388-4.02038-5.42592-9.45159-9.93956-16.29366-13.52501-6.84206-3.58545-14.67066-6.56626-23.46457-8.95833-8.80452-2.39207-18.08639-4.9963-27.86682-7.82329-22.80688-6.0783-42.25107-13.41363-58.32727-21.99538-16.0815-8.58175-29.27767-18.40992-39.5938-29.48982-10.32144-11.0799-17.87158-23.2471-22.64776-36.50161-4.78149-13.24921-7.17091-27.6971-7.17091-43.33837,0-17.59842,3.47407-33.67462,10.42752-48.22859,6.95079-14.55397,16.72858-27.05002,29.33071-37.47754,12.59682-10.42752,27.75014-18.516,45.45729-24.27607,17.70185-5.75476,37.31577-8.63479,58.81788-8.63479,15.21166,0,28.78971,1.3578,40.73415,4.07341,11.94444,2.71561,23.02964,6.78902,33.245,12.22024,10.20475,5.43122,19.81546,12.27328,28.83214,20.52619,9.01667,8.25821,18.20307,17.92727,27.53798,29.00717,3.26722,3.90899,4.89022,7.71191,4.89022,11.40344,0,3.90899-2.17461,7.60583-6.51322,11.0799-3.25661,2.60423-7.11787,5.86614-11.57317,9.77513-4.4553,3.90899-8.85756,7.71191-13.19617,11.40344-4.34922,3.69684-8.47567,6.84737-12.37936,9.45159-3.9143,2.60953-7.17091,3.9143-9.78044,3.9143-4.78414,0-9.45159-2.82169-14.01297-8.47567-4.78414-5.64868-9.55767-10.59194-14.34181-14.82447-4.77353-4.23784-9.76983-7.71191-14.98889-10.43282-5.20845-2.71031-10.86244-4.77353-16.94074-6.18968-6.08891-1.41084-12.70821-2.11627-19.87911-2.11627-5.86614,0-12.00809.86984-18.41523,2.60423-6.40714,1.74499-12.27328,4.34922-17.59842,7.82329-5.32514,3.47938-9.76983,7.65887-13.35528,12.54378-3.58545,4.89022-5.37818,10.37978-5.37818,16.45808,0,6.95345,2.21704,12.87263,6.67234,17.75754,4.44469,4.89022,10.07746,9.12806,16.90891,12.71351,6.83146,3.58015,14.26756,6.57156,22.28709,8.95833,8.03014,2.39207,15.50868,4.56138,22.45682,6.51852,19.95337,5.65398,38.28373,12.1672,54.98049,19.55027,16.70736,7.38837,31.081,16.352,43.1103,26.8856,12.03991,10.5389,21.41725,22.92357,28.14263,37.14869,6.72538,14.23574,10.08807,30.91128,10.08807,50.02132,0,20.20796-4.00977,38.29434-12.01869,54.25916-8.00893,15.97012-19.10474,29.49513-33.28744,40.56972-14.1827,11.0799-30.97492,19.55557-50.38729,25.42171-19.41237,5.86614-40.52199,8.79921-63.32887,8.79921-13.68413,0-27.59102-1.46919-41.71007-4.40226-14.12966-2.93307-27.65201-7.49445-40.57503-13.68413-12.92832-6.19498-24.87806-14.11905-35.84658-23.78811-10.97382-9.66375-20.15226-21.12553-27.53533-34.38004-3.25926-5.43122-4.89022-10.31613-4.89022-14.66535,0-2.82169.70277-5.2668,2.11892-7.33002,1.41084-2.06323,3.30965-4.07341,5.70437-6.03056l36.49631-28.02594c3.25926-1.95715,6.19233-2.93307,8.79921-2.93307,3.03915,0,5.75211,1.03427,8.14683,3.09749,2.38677,2.06853,4.99365,4.83718,7.82064,8.30595Z"/>
  <g>
    <path d="M2073.22674,1291.90165c0-1.01363.32921-1.82553.98826-2.43322.65843-.60892,1.49508-.91215,2.50933-.91215h79.99535c.91277,0,1.7358.27847,2.47158.83541.73392.55942,1.15225,1.39483,1.25436,2.50995v13.30719c0,1.01487-.31684,1.90103-.95051,2.66094-.63429.76115-1.55882,1.14111-2.77542,1.14111h-28.89536v88.96829c0,.91215-.31746,1.72404-.95051,2.43322-.63429.71041-1.50931,1.06438-2.62381,1.06438h-14.97987c-.91215,0-1.73704-.32921-2.47158-.98888-.73516-.65843-1.10213-1.49384-1.10213-2.50871v-88.96829h-28.97209c-1.01425,0-1.8509-.3156-2.50933-.95051-.65905-.63368-.98826-1.58419-.98826-2.85154v-13.30719Z"/>
    <path d="M2184.62492,1291.90165c.10149-.96289.48144-1.76117,1.14111-2.39485.65781-.63368,1.49446-.95051,2.50933-.95051h19.01027c1.77355,0,2.93941.96289,3.49759,2.88867l26.84272,74.82446c4.51123-12.57079,9.03545-25.04256,13.57328-37.41161,4.53598-12.36905,9.03606-24.83959,13.49717-37.41285.70917-1.92578,1.87504-2.88867,3.49821-2.88867h19.08576c1.01363,0,1.83729.32921,2.47158.98764.63306.65967.97527,1.44557,1.02663,2.35772,1.87504,17.79366,3.77606,35.51058,5.70308,53.15325,1.92578,17.64143,3.85218,35.3336,5.7792,53.07651v.22773c0,2.07925-1.11574,3.11763-3.34598,3.11763h-14.75214c-2.28098,0-3.47284-1.11388-3.57371-3.34536l-7.75634-71.93579-25.32165,69.95803c-.25434.71041-.65905,1.36884-1.21661,1.97776-.55818.60768-1.14049.91215-1.7488.91215h-13.68714c-.65967,0-1.26797-.29085-1.82553-.87502-.55818-.58169-.96351-1.25374-1.21661-2.01489-4.15726-11.71062-8.33927-23.34451-12.54665-34.9029-4.20862-11.55839-8.44076-23.21703-12.69888-34.97839l-7.75634,71.85905c0,2.23148-1.16648,3.34536-3.49759,3.34536h-14.75214c-2.23148,0-3.34598-1.11388-3.34598-3.34536l11.40616-106.22976Z"/>
  </g>
</svg>