<?xml version="1.0" encoding="UTF-8"?>
<svg id="Calque_1" data-name="Calque 1" xmlns="http://www.w3.org/2000/svg" viewBox="0 0 3000 3000">
  <defs>
    <style>
      .cls-1 {
        fill: #fff;
      }

      .cls-2 {
        fill: #e20000;
      }
    </style>
  </defs>
  <path class="cls-1" d="M1784.84489,1996.92299h-83.53601c-12.61825,0-22.84736-10.22911-22.84736-22.84736l-83.4254-368.66965c-5.7584-25.44724-2.91313-52.0858,8.09009-75.74272l27.59371-59.32648c11.00322-23.65693,13.84849-50.29548,8.09009-75.74272l-83.4254-368.66965c0-12.61825,10.22911-22.84736,22.84736-22.84736h83.53601c12.61825,0,22.84736,10.22911,22.84736,22.84736l83.4254,368.66965c5.7584,25.44724,2.91313,52.0858-8.09009,75.74272l-27.59371,59.32648c-11.00322,23.65693-13.84849,50.29548-8.09009,75.74272l83.4254,368.66965c0,12.61825-10.22911,22.84736-22.84736,22.84736Z"/>
  <path class="cls-1" d="M1603.30647,1996.92299h-83.53601c-12.61825,0-22.84736-10.22911-22.84736-22.84736l-83.4254-368.66965c-5.7584-25.44724-2.91313-52.0858,8.09009-75.74272l27.59371-59.32648c11.00322-23.65693,13.84849-50.29548,8.09009-75.74272l-83.4254-368.66965c0-12.61825,10.22911-22.84736,22.84736-22.84736h83.53601c12.61825,0,22.84736,10.22911,22.84736,22.84736l83.4254,368.66965c5.7584,25.44724,2.91313,52.0858-8.09009,75.74272l-27.59371,59.32648c-11.00322,23.65693-13.84849,50.29548-8.09009,75.74272l83.4254,368.66965c0,12.61825-10.22911,22.84736-22.84736,22.84736Z"/>
  <path class="cls-1" d="M1421.76804,1996.92299h-83.53601c-12.61825,0-22.84736-10.22911-22.84736-22.84736l-83.4254-368.66965c-5.7584-25.44724-2.91313-52.0858,8.09009-75.74272l27.59371-59.32648c11.00322-23.65693,13.84849-50.29548,8.09009-75.74272l-83.4254-368.66965c0-12.61825,10.22911-22.84736,22.84736-22.84736h83.53601c12.61825,0,22.84736,10.22911,22.84736,22.84736l83.4254,368.66965c5.7584,25.44724,2.91313,52.0858-8.09009,75.74272l-27.59371,59.32648c-11.00322,23.65693-13.84849,50.29548-8.09009,75.74272l83.4254,368.66965c0,12.61825-10.22911,22.84736-22.84736,22.84736Z"/>
  <rect class="cls-1" x="1192.30774" y="1846.15377" width="70.76922" height="150.7692" rx="35.38457" ry="35.38457"/>
  <rect class="cls-2" x="1736.92302" y="1003.07701" width="70.76922" height="150.7692" rx="35.38457" ry="35.38457"/>
</svg>